<?xml version="1.0" standalone="no"?><!DOCTYPE svg PUBLIC "-//W3C//DTD SVG 1.1//EN" "http://www.w3.org/Graphics/SVG/1.1/DTD/svg11.dtd" [<!ENTITY nbsp " ">]><svg data-noselect="" viewBox="196 125.12450313568255 423.66799163817996 317.75099372863497" width="423.66799163817996" ref="svg_canvas" height="317.75099372863497" preserveAspectRatio="none" version="1.1" xmlns="http://www.w3.org/2000/svg" style="background: #ffffff;"><g id="shape_sXEzcuFjpy" ref="shape_sXEzcuFjpy" key="shape_sXEzcuFjpy" transform="translate(276,233.0909072894) rotate(0,80,50.909092710601) scale(1,1)" style="cursor:move;display:inline;opacity:1;" filter="">
            <g style="display:inline"><rect fill="rgba(0,0,0,0)" width="180" height="121.8181854212" x="-10" y="-10"></rect><svg version="1.1" id="图层_1" xmlns="http://www.w3.org/2000/svg" xmlns:xlink="http://www.w3.org/1999/xlink" x="0px" y="0px" width="160" height="101.8181854212" viewBox="12.199999809265137 55.399993896484375 184.8000030517578 117.60000610351562" style="enable-background:new 0 0 200 200;" xml:space="preserve" preserveAspectRatio="none" data-parent="shape_sXEzcuFjpy">
<style type="text/css">
	.st0{fill:#65AADD;}
</style>
<g>
	<path class="" d="M27.9,85.4l15.9,14l-15.9,14V85.4 M19.4,59.1c-3.8,0-7.2,3-7.2,7.2v66.1c0,4.2,3.5,7.2,7.2,7.2
		c1.2,0,2.4-0.3,3.6-1l37.6-33c4.8-2.8,4.8-9.7,0-12.5L23,60.1C21.8,59.4,20.6,59.1,19.4,59.1L19.4,59.1z" fill="#65AADD"></path>
	<path class="" d="M197,143.3L197,143.3c0-9.5-7.7-17.1-17.1-17.1h-34.7l6.6,12.8l-27.5-11.4l-3.2-1.3H68.3
		c-2.2,0-3.9-1.8-3.9-3.9v-46c0-2.2,1.8-3.9,3.9-3.9h111.6c9.5,0,17.1-7.7,17.1-17.1v0H68.3c-11.6,0-21,9.4-21,21v46
		c0,11.6,9.4,21,21,21h49.5l70.9,29.6l-15.3-29.6H197z" fill="#65AADD"></path>
</g>
</svg></g>
        </g><g id="shape_LF7mbZegWJ" ref="shape_LF7mbZegWJ" key="shape_LF7mbZegWJ" transform="translate(336.66796875,251.78924274445) rotate(0,113,20.36) scale(1,1)" style="cursor:move;display:inline;opacity:1;" filter="">
            <g style="display:inline"><svg xmlns="http://www.w3.org/2000/svg" version="1.1" xmlns:xlink="http://www.w3.org/1999/xlink" width="186" height="40.72" viewBox="0 0 186 40.72" preserveAspectRatio="none" data-parent="shape_LF7mbZegWJ"><rect fill="rgba(0,0,0,0)" width="186" height="40.72"></rect><g data-width="185.68" transform=""><path d="M2.40-11.68L2.40-26.68L8.04-26.68L8.04-11.68Q8.16-8.84 8.28-7.92L8.28-7.92Q8.56-6.08 10.04-5.42Q11.52-4.76 15.24-4.76L15.24-4.76L20.68-4.76L20.68 0L14.64 0Q10.36 0 8.44-0.48L8.44-0.48Q4.04-1.76 2.84-6.08L2.84-6.08Q2.40-7.76 2.40-11.68L2.40-11.68Z" transform="translate(0 34) " fill="rgb(101, 170, 221)" stroke="rgb(101, 170, 221)" stroke-linecap="square" stroke-linejoin="square" stroke-width="0.067" data-glyph-w="21.28" data-glyph-h="40" data-glyph-ascender="34.36" data-glyph-descender="-5.64"></path><path d="M8.40 0L2.72 0L2.72-26.68L8.40-26.68L8.40 0Z" transform="translate(21.28 34) " fill="rgb(101, 170, 221)" stroke="rgb(101, 170, 221)" stroke-linecap="square" stroke-linejoin="square" stroke-width="0.067" data-glyph-w="11.08" data-glyph-h="40" data-glyph-ascender="34.36" data-glyph-descender="-5.64"></path><path d="M2.40-26.68L8.04-26.68L8.04-10.68Q8.04-8.76 8.36-7.70Q8.68-6.64 9.44-5.88L9.44-5.88Q11.12-4.24 14.12-4.24L14.12-4.24Q16.04-4.24 17.46-4.90Q18.88-5.56 19.44-6.68L19.44-6.68Q20-7.80 20-10.68L20-10.68L20-26.68L25.68-26.68L25.68-10.96Q25.68-7.84 25.02-5.82Q24.36-3.80 23-2.56L23-2.56Q19.84 0.20 14.04 0.20L14.04 0.20Q7.84 0.20 5-2.52L5-2.52Q3.52-3.92 2.96-5.66Q2.40-7.40 2.40-10.56L2.40-10.56L2.40-26.68Z" transform="translate(32.36 34) " fill="rgb(101, 170, 221)" stroke="rgb(101, 170, 221)" stroke-linecap="square" stroke-linejoin="square" stroke-width="0.067" data-glyph-w="28.12" data-glyph-h="40" data-glyph-ascender="34.36" data-glyph-descender="-5.64"></path><path d="M2.40-11.68L2.40-26.68L8.04-26.68L8.04-11.68Q8.16-8.84 8.28-7.92L8.28-7.92Q8.56-6.08 10.04-5.42Q11.52-4.76 15.24-4.76L15.24-4.76L20.68-4.76L20.68 0L14.64 0Q10.36 0 8.44-0.48L8.44-0.48Q4.04-1.76 2.84-6.08L2.84-6.08Q2.40-7.76 2.40-11.68L2.40-11.68Z" transform="translate(60.480000000000004 34) " fill="rgb(101, 170, 221)" stroke="rgb(101, 170, 221)" stroke-linecap="square" stroke-linejoin="square" stroke-width="0.067" data-glyph-w="21.28" data-glyph-h="40" data-glyph-ascender="34.36" data-glyph-descender="-5.64"></path><path d="M8.40 0L2.72 0L2.72-26.68L8.40-26.68L8.40 0Z" transform="translate(81.76 34) " fill="rgb(101, 170, 221)" stroke="rgb(101, 170, 221)" stroke-linecap="square" stroke-linejoin="square" stroke-width="0.067" data-glyph-w="11.08" data-glyph-h="40" data-glyph-ascender="34.36" data-glyph-descender="-5.64"></path><path d="M2.40-11.68L2.40-26.68L8.04-26.68L8.04-11.68Q8.16-8.84 8.28-7.92L8.28-7.92Q8.56-6.08 10.04-5.42Q11.52-4.76 15.24-4.76L15.24-4.76L20.68-4.76L20.68 0L14.64 0Q10.36 0 8.44-0.48L8.44-0.48Q4.04-1.76 2.84-6.08L2.84-6.08Q2.40-7.76 2.40-11.68L2.40-11.68Z" transform="translate(92.84 34) " fill="rgb(101, 170, 221)" stroke="rgb(101, 170, 221)" stroke-linecap="square" stroke-linejoin="square" stroke-width="0.067" data-glyph-w="21.28" data-glyph-h="40" data-glyph-ascender="34.36" data-glyph-descender="-5.64"></path><path d="M8.40 0L2.72 0L2.72-26.68L8.40-26.68L8.40 0Z" transform="translate(114.12 34) " fill="rgb(101, 170, 221)" stroke="rgb(101, 170, 221)" stroke-linecap="square" stroke-linejoin="square" stroke-width="0.067" data-glyph-w="11.08" data-glyph-h="40" data-glyph-ascender="34.36" data-glyph-descender="-5.64"></path><path d="M2.40-26.68L8.04-26.68L8.04-10.68Q8.04-8.76 8.36-7.70Q8.68-6.64 9.44-5.88L9.44-5.88Q11.12-4.24 14.12-4.24L14.12-4.24Q16.04-4.24 17.46-4.90Q18.88-5.56 19.44-6.68L19.44-6.68Q20-7.80 20-10.68L20-10.68L20-26.68L25.68-26.68L25.68-10.96Q25.68-7.84 25.02-5.82Q24.36-3.80 23-2.56L23-2.56Q19.84 0.20 14.04 0.20L14.04 0.20Q7.84 0.20 5-2.52L5-2.52Q3.52-3.92 2.96-5.66Q2.40-7.40 2.40-10.56L2.40-10.56L2.40-26.68Z" transform="translate(125.2 34) " fill="rgb(101, 170, 221)" stroke="rgb(101, 170, 221)" stroke-linecap="square" stroke-linejoin="square" stroke-width="0.067" data-glyph-w="28.12" data-glyph-h="40" data-glyph-ascender="34.36" data-glyph-descender="-5.64"></path><path d="M2.40-11.68L2.40-26.68L8.04-26.68L8.04-11.68Q8.16-8.84 8.28-7.92L8.28-7.92Q8.56-6.08 10.04-5.42Q11.52-4.76 15.24-4.76L15.24-4.76L20.68-4.76L20.68 0L14.64 0Q10.36 0 8.44-0.48L8.44-0.48Q4.04-1.76 2.84-6.08L2.84-6.08Q2.40-7.76 2.40-11.68L2.40-11.68Z" transform="translate(153.32 34) " fill="rgb(101, 170, 221)" stroke="rgb(101, 170, 221)" stroke-linecap="square" stroke-linejoin="square" stroke-width="0.067" data-glyph-w="21.28" data-glyph-h="40" data-glyph-ascender="34.36" data-glyph-descender="-5.64"></path><path d="M8.40 0L2.72 0L2.72-26.68L8.40-26.68L8.40 0Z" transform="translate(174.6 34) " fill="rgb(101, 170, 221)" stroke="rgb(101, 170, 221)" stroke-linecap="square" stroke-linejoin="square" stroke-width="0.067" data-glyph-w="11.08" data-glyph-h="40" data-glyph-ascender="34.36" data-glyph-descender="-5.64"></path></g></svg></g>
        </g><g id="shape_yjpXpedJJA" ref="shape_yjpXpedJJA" key="shape_yjpXpedJJA" transform="translate(444.66799163818,298.5102148056) rotate(0,65.6201171875,7.6112423000209) scale(1,1)" style="cursor:move;display:inline;opacity:1;" filter="">
            <g style="display:inline"><svg xmlns="http://www.w3.org/2000/svg" version="1.1" xmlns:xlink="http://www.w3.org/1999/xlink" width="95" height="14.151712" viewBox="0 0 95 14.151712" preserveAspectRatio="none" data-parent="shape_yjpXpedJJA"><rect fill="rgba(0,0,0,0)" width="95" height="14.151712"></rect><g data-width="94.92512040000001" transform=""><path d="M3.36-10.48L3.36-10.48L4.24-10.22Q3.69-8.82 2.95-7.53L2.95-7.53L2.95 0.93L2.05 0.93L2.05-6.13Q1.43-5.26 0.78-4.57L0.78-4.57Q0.69-4.76 0.54-5.03Q0.39-5.31 0.25-5.49L0.25-5.49Q2.19-7.46 3.36-10.48ZM5.65-5.17L5.65-5.17L6.57-5.00Q5.93-2.40 4.73-0.72L4.73-0.72Q4.59-0.84 4.35-0.99Q4.12-1.13 3.93-1.23L3.93-1.23Q5.14-2.81 5.65-5.17ZM10.98-7.25L10.98-7.25L8.61-7.25L8.61-0.18Q8.61 0.62 8.17 0.78L8.17 0.78Q7.92 0.89 7.51 0.93Q7.10 0.97 6.51 0.97L6.51 0.97Q6.47 0.76 6.37 0.49Q6.28 0.23 6.18 0.03L6.18 0.03Q6.95 0.05 7.35 0.04L7.35 0.04Q7.43 0.04 7.48 0.04L7.48 0.04Q7.60 0.04 7.65-0.01Q7.69-0.05 7.69-0.18L7.69-0.18L7.69-7.25L5.78-7.25Q5.25-5.99 4.56-5.08L4.56-5.08Q4.43-5.20 4.20-5.38Q3.98-5.56 3.81-5.68L3.81-5.68Q5.22-7.56 5.88-10.47L5.88-10.47L6.80-10.27Q6.51-9.16 6.13-8.12L6.13-8.12L11.23-8.12L11.38-8.16L12.02-8.00Q11.89-7.30 11.74-6.58Q11.59-5.85 11.47-5.34L11.47-5.34L10.69-5.49Q10.71-5.61 10.74-5.76L10.74-5.76Q10.85-6.43 10.98-7.25ZM9.53-5.00L9.53-5.00L10.35-5.27Q10.90-4.24 11.32-3.10Q11.74-1.96 11.92-1.07L11.92-1.07L11.03-0.77Q10.86-1.66 10.45-2.82Q10.04-3.98 9.53-5.00Z" transform="translate(0 11) " fill="rgb(101, 170, 221)" stroke="rgb(101, 170, 221)" stroke-linecap="square" stroke-linejoin="square" stroke-width="0.021" data-glyph-w="12.5862" data-glyph-h="12.5862" data-glyph-ascender="11.075856" data-glyph-descender="-1.5103440000000001"></path><path d="M7.31-7.93L10.43-7.93L10.43-9.10L7.31-9.10L7.31-7.93ZM7.31-6.02L10.43-6.02L10.43-7.20L7.31-7.20L7.31-6.02ZM7.31-4.10L10.43-4.10L10.43-5.30L7.31-5.30L7.31-4.10ZM6.44-9.87L11.33-9.87L11.33-3.34L6.44-3.34L6.44-9.87ZM5.22-2.96L5.22-2.96L5.88-3.44Q6.33-3.02 6.82-2.52Q7.30-2.03 7.61-1.66L7.61-1.66L6.93-1.11Q6.65-1.49 6.16-2.00Q5.68-2.52 5.22-2.96ZM1.45 0.30L1.45 0.30L0.63-0.11Q1.01-0.63 1.32-1.33Q1.62-2.04 1.81-2.67L1.81-2.67L2.63-2.35Q2.42-1.70 2.12-0.97Q1.82-0.24 1.45 0.30ZM3.91-6.27L3.91-3.21L3.02-3.21L3.02-6.52Q2.15-4.90 1.06-3.95L1.06-3.95Q0.94-4.12 0.77-4.30Q0.60-4.48 0.45-4.61L0.45-4.61Q1.93-5.75 2.86-7.84L2.86-7.84L0.73-7.84L0.73-8.66L3.02-8.66L3.02-10.50L3.91-10.50L3.91-8.66L5.90-8.66L5.90-7.84L3.91-7.84L3.91-7.14Q4.17-6.97 4.59-6.66Q5.02-6.36 5.42-6.06Q5.83-5.76 6.00-5.63L6.00-5.63L5.50-4.87Q5.24-5.12 4.79-5.51Q4.34-5.90 3.91-6.27L3.91-6.27ZM5.36-0.15L5.36-0.15L7.84-0.15Q8.29-0.15 8.43-0.42Q8.57-0.68 8.60-1.61L8.60-1.61Q8.76-1.49 9.01-1.39Q9.25-1.30 9.45-1.26L9.45-1.26Q9.38-0.10 9.07 0.30Q8.76 0.69 7.90 0.69L7.90 0.69L5.30 0.69Q4.28 0.69 3.93 0.45Q3.59 0.20 3.59-0.53L3.59-0.53L3.59-2.53L4.51-2.53L4.51-0.54Q4.51-0.30 4.66-0.23Q4.82-0.15 5.36-0.15ZM9.63-2.55L9.63-2.55L10.43-2.92Q10.84-2.30 11.26-1.60Q11.69-0.91 11.94-0.40L11.94-0.40L11.08 0.03Q10.84-0.49 10.43-1.20Q10.02-1.91 9.63-2.55Z" transform="translate(12.5862 11) " fill="rgb(101, 170, 221)" stroke="rgb(101, 170, 221)" stroke-linecap="square" stroke-linejoin="square" stroke-width="0.021" data-glyph-w="12.5862" data-glyph-h="12.5862" data-glyph-ascender="11.075856" data-glyph-descender="-1.5103440000000001"></path><path d="M8.46-2.93L8.46-2.93L4.76-2.93Q4.33-2.32 3.91-1.80L3.91-1.80Q5.12-1.55 6.29-1.28L6.29-1.28Q6.48-1.23 6.67-1.20L6.67-1.20Q7.83-1.85 8.46-2.93ZM4.32-7.33L2.43-7.33L2.43-5.63L4.32-5.63L4.32-7.33ZM7.24-9.15L5.21-9.15L5.21-8.09L7.24-8.09L7.24-9.15ZM10.22-5.63L10.22-7.33L8.13-7.33L8.13-5.63L10.22-5.63ZM5.21-7.33L5.21-5.63L7.24-5.63L7.24-7.33L5.21-7.33ZM11.87-3.75L11.87-2.93L9.48-2.93Q8.89-1.70 7.80-0.91L7.80-0.91Q10.04-0.34 11.58 0.24L11.58 0.24L10.80 0.97Q9.23 0.33 6.81-0.30L6.81-0.30Q4.73 0.69 1.17 0.96L1.17 0.96Q1.04 0.50 0.79 0.14L0.79 0.14Q3.65-0.01 5.47-0.65L5.47-0.65Q3.99-1.01 2.39-1.31L2.39-1.31Q3.02-2.00 3.68-2.93L3.68-2.93L0.72-2.93L0.72-3.75L4.23-3.75Q4.62-4.33 4.87-4.86L4.87-4.86L1.54-4.86L1.54-8.09L4.32-8.09L4.32-9.15L0.92-9.15L0.92-9.98L11.67-9.98L11.67-9.15L8.13-9.15L8.13-8.09L11.14-8.09L11.14-4.86L5.30-4.86L5.87-4.72Q5.61-4.25 5.31-3.75L5.31-3.75L11.87-3.75Z" transform="translate(25.1724 11) " fill="rgb(101, 170, 221)" stroke="rgb(101, 170, 221)" stroke-linecap="square" stroke-linejoin="square" stroke-width="0.021" data-glyph-w="12.5862" data-glyph-h="12.5862" data-glyph-ascender="11.075856" data-glyph-descender="-1.5103440000000001"></path><path d="M1.99-5.05L4.63-5.05L4.63-7.68L1.99-7.68L1.99-5.05ZM1.99-4.22L1.99-1.20L4.63-1.20L4.63-4.22L1.99-4.22ZM3.05-10.56L3.05-10.56L4.05-10.37Q3.98-10.13 3.89-9.89L3.89-9.89Q3.64-9.15 3.40-8.52L3.40-8.52L5.49-8.52L5.49-0.35L1.99-0.35L1.99 0.64L1.13 0.64L1.13-8.52L2.54-8.52Q2.69-8.99 2.83-9.55Q2.97-10.11 3.05-10.56ZM7.88-8.56L11.64-8.56L11.64-8.08Q11.50-3.85 11.32-2.01Q11.14-0.18 10.77 0.21L10.77 0.21Q10.40 0.70 9.78 0.72L9.78 0.72Q9.05 0.78 7.92 0.70L7.92 0.70Q7.89 0.49 7.82 0.24Q7.74-0.01 7.60-0.21L7.60-0.21Q8.23-0.16 8.74-0.15Q9.25-0.14 9.46-0.14L9.46-0.14Q9.65-0.14 9.77-0.18Q9.89-0.21 9.98-0.33L9.98-0.33Q10.28-0.60 10.46-2.30Q10.64-3.99 10.75-7.69L10.75-7.69L7.55-7.69Q7.02-6.41 6.37-5.49L6.37-5.49Q6.23-5.61 6.00-5.76Q5.76-5.92 5.60-6.02L5.60-6.02Q6.90-7.84 7.53-10.58L7.53-10.58L8.42-10.37Q8.19-9.45 7.88-8.56L7.88-8.56ZM9.65-2.89L9.65-2.89L8.86-2.40Q8.56-3.00 8.02-3.80Q7.49-4.61 6.95-5.31L6.95-5.31L7.68-5.74Q8.23-5.05 8.78-4.26Q9.33-3.47 9.65-2.89Z" transform="translate(37.7586 11) " fill="rgb(101, 170, 221)" stroke="rgb(101, 170, 221)" stroke-linecap="square" stroke-linejoin="square" stroke-width="0.021" data-glyph-w="12.5862" data-glyph-h="12.5862" data-glyph-ascender="11.075856" data-glyph-descender="-1.5103440000000001"></path><path d="M3.96-8.24L3.96-6.73L4.34-6.73Q4.93-7.45 5.44-8.24L5.44-8.24L3.96-8.24ZM2.77-2.69L5.59-2.69L5.59-3.91L2.77-3.91L2.77-2.69ZM2.77-1.94L2.77-0.62L5.59-0.62L5.59-1.94L2.77-1.94ZM6.41-10.08L6.41-10.08L7.25-9.84Q6.49-8.13 5.42-6.73L5.42-6.73L7.05-6.73L7.05-5.90L4.74-5.90Q4.19-5.26 3.55-4.68L3.55-4.68L6.48-4.68L6.48 0.73L5.59 0.73L5.59 0.16L2.77 0.16L2.77 0.91L1.90 0.91L1.90-3.41Q1.42-3.10 0.91-2.81L0.91-2.81Q0.81-2.96 0.63-3.19Q0.45-3.42 0.31-3.57L0.31-3.57Q2.15-4.48 3.57-5.90L3.57-5.90L0.59-5.90L0.59-6.73L3.08-6.73L3.08-8.24L1.16-8.24L1.16-9.07L3.08-9.07L3.08-10.42L3.96-10.42L3.96-9.07L5.53-9.07L5.53-8.38Q6.03-9.20 6.41-10.08ZM11.26-9.82L11.42-9.85L12.08-9.41Q11.23-7.51 10.26-5.64L10.26-5.64Q11.23-4.77 11.57-4.01Q11.92-3.26 11.92-2.59L11.92-2.59Q11.96-1.42 11.28-0.96L11.28-0.96Q10.92-0.72 10.43-0.67L10.43-0.67Q9.89-0.62 9.26-0.65L9.26-0.65Q9.25-0.86 9.18-1.11Q9.11-1.37 8.99-1.57L8.99-1.57Q9.63-1.51 10.06-1.55L10.06-1.55Q10.40-1.57 10.65-1.70L10.65-1.70Q11.05-1.96 11.01-2.68L11.01-2.68Q11.01-3.27 10.64-3.98Q10.27-4.69 9.30-5.51L9.30-5.51Q10.17-7.26 10.84-8.92L10.84-8.92L8.50-8.92L8.50 0.97L7.58 0.97L7.58-9.82L11.26-9.82Z" transform="translate(50.3448 11) " fill="rgb(101, 170, 221)" stroke="rgb(101, 170, 221)" stroke-linecap="square" stroke-linejoin="square" stroke-width="0.021" data-glyph-w="12.5862" data-glyph-h="12.5862" data-glyph-ascender="11.075856" data-glyph-descender="-1.5103440000000001"></path><path d="M11.28-3.75L8.45-3.75L8.45-0.21L11.77-0.21L11.77 0.67L4.20 0.67L4.20-0.21L7.51-0.21L7.51-3.75L4.69-3.75L4.69-4.63L7.51-4.63L7.51-7.04L8.45-7.04L8.45-4.63L11.28-4.63L11.28-3.75ZM5.29-8.58L5.29-8.58L11.77-8.58L11.77-7.69L4.91-7.69Q4.27-6.33 3.39-5.12L3.39-5.12L3.39 0.92L2.47 0.92L2.47-4.01Q1.80-3.31 1.01-2.74L1.01-2.74Q0.93-2.95 0.79-3.18Q0.65-3.42 0.53-3.59L0.53-3.59Q2.68-5.21 3.85-7.69L3.85-7.69L0.83-7.69L0.83-8.58L4.27-8.58Q4.67-9.57 4.93-10.53L4.93-10.53L5.89-10.30Q5.64-9.44 5.29-8.58Z" transform="translate(62.931 11) " fill="rgb(101, 170, 221)" stroke="rgb(101, 170, 221)" stroke-linecap="square" stroke-linejoin="square" stroke-width="0.021" data-glyph-w="12.5862" data-glyph-h="12.5862" data-glyph-ascender="11.075856" data-glyph-descender="-1.5103440000000001"></path><path d="M6.46 0L1.26 0L1.26-9.23L2.43-9.23L2.43-0.99L6.46-0.99L6.46 0Z" transform="translate(75.5172 11) " fill="rgb(101, 170, 221)" stroke="rgb(101, 170, 221)" stroke-linecap="square" stroke-linejoin="square" stroke-width="0.021" data-glyph-w="6.8217204" data-glyph-h="12.5862" data-glyph-ascender="11.075856" data-glyph-descender="-1.5103440000000001"></path><path d="M3.93-8.60L3.93-8.60L3.08-8.31Q2.96-8.71 2.73-9.24Q2.50-9.77 2.25-10.22L2.25-10.22L3.03-10.46Q3.32-10.01 3.57-9.50Q3.81-9.00 3.93-8.60ZM4.13-2.01L4.13-2.01L5.49-2.34L5.58-1.49Q2.96-0.82 0.86-0.29L0.86-0.29L0.63-1.21Q0.92-1.27 1.25-1.35L1.25-1.35Q2.19-1.55 3.35-1.82L3.35-1.82Q3.60-2.87 3.82-4.28Q4.04-5.69 4.17-6.88L4.17-6.88L5.05-6.72Q4.86-5.59 4.62-4.31Q4.38-3.03 4.13-2.01ZM1.27-6.60L1.27-6.60L2.03-6.73Q2.25-5.63 2.43-4.42Q2.61-3.21 2.67-2.25L2.67-2.25L1.88-2.10Q1.84-3.06 1.67-4.28Q1.50-5.50 1.27-6.60ZM5.64-7.31L0.78-7.31L0.78-8.18L5.64-8.18L5.64-7.31ZM6.78-0.52L10.56-0.52L10.56-3.68L6.78-3.68L6.78-0.52ZM12.03-7.93L12.03-7.04L8.86-7.04L8.86-4.56L11.50-4.56L11.50 0.91L10.56 0.91L10.56 0.36L6.78 0.36L6.78 0.96L5.88 0.96L5.88-4.56L7.92-4.56L7.92-10.53L8.86-10.53L8.86-7.93L12.03-7.93Z" transform="translate(82.3389204 11) " fill="rgb(101, 170, 221)" stroke="rgb(101, 170, 221)" stroke-linecap="square" stroke-linejoin="square" stroke-width="0.021" data-glyph-w="12.5862" data-glyph-h="12.5862" data-glyph-ascender="11.075856" data-glyph-descender="-1.5103440000000001"></path></g></svg></g>
        </g></svg>